<svg xmlns="http://www.w3.org/2000/svg" width="233.889" height="169.612" viewBox="0 0 233.889 169.612"><g fill="#fff" stroke-miterlimit="10" data-name="Rectangle Copy 2"><path d="M8 23.893C8 15.116 14.829 8 23.252 8h187.385c8.424 0 15.252 7.116 15.252 15.893v96.89c0 8.778-6.829 15.893-15.252 15.893H77.61a14.909 14.909 0 0 0-10.182 4.06l-20.474 19.129a6.468 6.468 0 0 1-10.8-3.9L35 149.078A14.9 14.9 0 0 0 20.43 136.5C14.036 136.589 8 130.386 8 123.722z"/><path fill="rgba(255,255,255,0.3)" d="M23.252 8C14.83 8 8 15.116 8 23.893v99.829c0 6.615 5.947 12.775 12.29 12.775h.14c.066-.002.131-.002.197-.002 6.988 0 13.167 5.394 14.37 12.583l1.154 6.887c.586 3.5 3.474 5.647 6.468 5.647 1.512 0 3.052-.548 4.335-1.747l20.473-19.129c2.798-2.614 6.424-4.06 10.183-4.06h133.027c8.424 0 15.252-7.116 15.252-15.893v-96.89C225.89 15.116 219.061 8 210.637 8H23.252m0-8h187.385c12.821 0 23.252 10.718 23.252 23.893v96.89c0 13.174-10.43 23.893-23.252 23.893H77.61c-1.73 0-3.406.677-4.721 1.906L52.416 165.71c-2.693 2.515-6.172 3.901-9.797 3.901-7.124 0-13.162-5.184-14.358-12.326l-1.154-6.887c-.554-3.31-3.4-5.904-6.48-5.904h-.004C9.479 144.495 0 134.788 0 123.722V23.893C0 10.718 10.43 0 23.252 0z"/></g></svg>