<svg width="239" height="166.374" viewBox="0 0 239 166.374"><g fill="#fff" stroke-miterlimit="10"><path d="M8 22A14 14 0 0122 8h195a14 14 0 0114 14v97.407a14 14 0 01-14 14H78.6a14 14 0 00-9.306 3.541l-22.369 19.9a6 6 0 01-9.9-3.443l-1.517-8.605a14 14 0 00-13.981-11.574A13.522 13.522 0 018 119.879z"/><path fill="rgba(255,255,255,0.3)" d="M22 8C14.268 8 8 14.268 8 22v97.88c0 7.243 6.125 13.342 13.35 13.342l.177-.001.195-.001a14 14 0 0113.786 11.575l1.514 8.612c.542 3.079 3.19 4.967 5.936 4.967a5.914 5.914 0 003.962-1.523l22.37-19.903a14 14 0 019.305-3.54H217c7.732 0 14-6.269 14-14V22c0-7.732-6.268-14-14-14H22m0-8h195c12.13 0 22 9.87 22 22v97.407c0 12.131-9.87 22-22 22H78.595a5.994 5.994 0 00-3.988 1.518l-22.37 19.903a13.954 13.954 0 01-9.28 3.546 13.997 13.997 0 01-13.814-11.581l-1.514-8.612a5.99 5.99 0 00-5.907-4.961h-.005C9.774 141.22 0 131.447 0 119.88V22C0 9.87 9.87 0 22 0z"/></g></svg>