<svg width="0" height="0" style="position:absolute"><symbol viewBox="0 0 24 24" id="svg-arrow-icon"><path fill="#f2994a" d="M16.172 11l-5.364-5.364 1.414-1.414L20 12l-7.778 7.778-1.414-1.414L16.172 13H4v-2z"/></symbol><symbol viewBox="0 0 239 166.374" id="svg-bubble-1"><g fill="#fff" stroke-miterlimit="10"><path d="M8 22A14 14 0 0122 8h195a14 14 0 0114 14v97.407a14 14 0 01-14 14H78.6a14 14 0 00-9.306 3.541l-22.369 19.9a6 6 0 01-9.9-3.443l-1.517-8.605a14 14 0 00-13.981-11.574A13.522 13.522 0 018 119.879z"/><path fill="rgba(255,255,255,0.3)" d="M22 8C14.268 8 8 14.268 8 22v97.88c0 7.243 6.125 13.342 13.35 13.342l.177-.001.195-.001a14 14 0 0113.786 11.575l1.514 8.612c.542 3.079 3.19 4.967 5.936 4.967a5.914 5.914 0 003.962-1.523l22.37-19.903a14 14 0 019.305-3.54H217c7.732 0 14-6.269 14-14V22c0-7.732-6.268-14-14-14H22m0-8h195c12.13 0 22 9.87 22 22v97.407c0 12.131-9.87 22-22 22H78.595a5.994 5.994 0 00-3.988 1.518l-22.37 19.903a13.954 13.954 0 01-9.28 3.546 13.997 13.997 0 01-13.814-11.581l-1.514-8.612a5.99 5.99 0 00-5.907-4.961h-.005C9.774 141.22 0 131.447 0 119.88V22C0 9.87 9.87 0 22 0z"/></g></symbol><symbol viewBox="0 0 233.889 169.612" id="svg-bubble-2"><g fill="#fff" stroke-miterlimit="10" data-name="Rectangle Copy 2"><path d="M8 23.893C8 15.116 14.829 8 23.252 8h187.385c8.424 0 15.252 7.116 15.252 15.893v96.89c0 8.778-6.829 15.893-15.252 15.893H77.61a14.909 14.909 0 00-10.182 4.06l-20.474 19.129a6.468 6.468 0 01-10.8-3.9L35 149.078A14.9 14.9 0 0020.43 136.5C14.036 136.589 8 130.386 8 123.722z"/><path fill="rgba(255,255,255,0.3)" d="M23.252 8C14.83 8 8 15.116 8 23.893v99.829c0 6.615 5.947 12.775 12.29 12.775h.14c.066-.002.131-.002.197-.002 6.988 0 13.167 5.394 14.37 12.583l1.154 6.887c.586 3.5 3.474 5.647 6.468 5.647 1.512 0 3.052-.548 4.335-1.747l20.473-19.129c2.798-2.614 6.424-4.06 10.183-4.06h133.027c8.424 0 15.252-7.116 15.252-15.893v-96.89C225.89 15.116 219.061 8 210.637 8H23.252m0-8h187.385c12.821 0 23.252 10.718 23.252 23.893v96.89c0 13.174-10.43 23.893-23.252 23.893H77.61c-1.73 0-3.406.677-4.721 1.906L52.416 165.71c-2.693 2.515-6.172 3.901-9.797 3.901-7.124 0-13.162-5.184-14.358-12.326l-1.154-6.887c-.554-3.31-3.4-5.904-6.48-5.904h-.004C9.479 144.495 0 134.788 0 123.722V23.893C0 10.718 10.43 0 23.252 0z"/></g></symbol><symbol viewBox="0 0 24 24" id="svg-calendar-icon"><path d="M21 21H3a1 1 0 01-1-1V4a1 1 0 011-1h4V1h2v2h6V1h2v2h4a1 1 0 011 1v16a1 1 0 01-1 1zM4 11v8h16v-8zm0-6v4h16V5h-3v2h-2V5H9v2H7V5z"/></symbol><symbol viewBox="0 0 19.021 18.091" id="svg-empty-star"><path fill="#f2994a" d="M3.631 18.091l1.314-6.606L0 6.91l6.689-.793L9.511 0l2.821 6.117 6.689.793-4.945 4.574 1.312 6.6L9.511 14.8l-5.878 3.29zm5.879-5.2l3.539 1.981-.791-3.978 2.978-2.754-4.026-.478-1.7-3.682-1.7 3.683-4.027.476 2.977 2.754-.791 3.978L9.51 12.89z"/></symbol><symbol viewBox="0 0 30 30" id="svg-facebook-icon"><path d="M7.14 20v-9.123h3.243l.486-3.555H7.14v-2.27c0-1.029.3-1.731 1.866-1.731H11V.14A28.246 28.246 0 008.094 0C5.22 0 3.251 1.657 3.251 4.7v2.622H0v3.555h3.251V20z"/></symbol><symbol viewBox="0 0 19.022 18.09" id="svg-filled-star"><path fill="#f2994a" d="M9.511 14.8l-5.878 3.29 1.312-6.607L0 6.91l6.689-.793L9.511 0l2.822 6.117 6.689.793-4.946 4.573 1.313 6.607z"/></symbol><symbol viewBox="0 0 191 181" id="svg-gostishka-pointer"><g data-name="Group 5"><path fill="none" stroke="#85c7d3" stroke-miterlimit="10" stroke-width="4" d="M42 42v125a12 12 0 0012 12h137" data-name="Path 3"/><circle cx="42" cy="42" r="42" fill="rgba(255,255,255,0.6)"/><g fill="#f2994a" stroke="#fff" stroke-miterlimit="10" stroke-width="10" data-name="Oval" transform="translate(32 32)"><circle cx="10" cy="10" r="10" stroke="none"/><circle cx="10" cy="10" r="15" fill="none"/></g></g></symbol><symbol viewBox="0 0 30 30" id="svg-instagram-logo"><path d="M10.063 1.75h4.025a5.075 5.075 0 011.887.375 2.263 2.263 0 011.132.75A2.95 2.95 0 0117.862 4a4.988 4.988 0 01.377 1.875v8a4.988 4.988 0 01-.377 1.875 2.248 2.248 0 01-.755 1.125 2.972 2.972 0 01-1.132.75 5.075 5.075 0 01-1.887.375h-8.05a5.075 5.075 0 01-1.887-.375 2.263 2.263 0 01-1.132-.75 2.95 2.95 0 01-.755-1.125 4.988 4.988 0 01-.377-1.875v-8A4.988 4.988 0 012.264 4a2.248 2.248 0 01.755-1.125 2.972 2.972 0 011.132-.75 5.075 5.075 0 011.887-.375h4.025m0-1.75H5.912a13.433 13.433 0 00-2.39.5 5.28 5.28 0 00-1.761 1.125A3.839 3.839 0 00.5 3.5 13.2 13.2 0 000 5.875v8.25A5.046 5.046 0 00.5 16.5a5.239 5.239 0 001.132 1.75A5.28 5.28 0 003.4 19.375 9.274 9.274 0 005.912 20h8.3a5.132 5.132 0 002.39-.5 4.912 4.912 0 002.898-2.875 8.027 8.027 0 00.5-2.375V6a5.046 5.046 0 00-.5-2.375 5.239 5.239 0 00-1.132-1.75A5.28 5.28 0 0016.6.75 5.363 5.363 0 0014.214 0h-4.151z"/><path d="M10.061 4.799a5.2 5.2 0 100 10.4 5.2 5.2 0 100-10.4zm0 8.626a3.425 3.425 0 113.466-3.426 3.431 3.431 0 01-3.465 3.425z"/><circle cx="1.231" cy="1.231" r="1.231" transform="translate(14.258 3.383)"/></symbol><symbol viewBox="0 0 24 24" id="svg-map-pin-icon"><path d="M12 23.728l-6.364-6.364A9 9 0 0118.364 4.636a9.01 9.01 0 010 12.728L12 23.727zM12 4a7 7 0 00-4.95 11.95L12 20.9l4.95-4.95A7 7 0 0012 4zm0 9a2 2 0 112-2 2 2 0 01-2 2z"/></symbol><symbol viewBox="0 0 11.758 8.041" id="svg-mark-icon"><path fill="none" stroke="#fff" stroke-linecap="round" stroke-linejoin="round" stroke-miterlimit="10" stroke-width="2" d="M1.414 4.159l2.788 2.882 6.143-5.628" data-name="Path 2"/></symbol><symbol viewBox="0 0 23 18" id="svg-menu-burger"><path d="M28 10H4a1 1 0 010-2h24a1 1 0 010 2zm0 7H4a1 1 0 010-2h24a1 1 0 010 2zm0 7H4a1 1 0 010-2h24a1 1 0 010 2z" data-name="Layer 2"/><path fill="none" d="M0 0h23v18H0z"/></symbol><symbol viewBox="0 0 14.828 8.414" id="svg-sign-icon"><g data-name="Icon Group"><path fill="none" stroke="#000" stroke-linecap="round" stroke-linejoin="round" stroke-miterlimit="10" stroke-width="2" d="M1.414 1.414l6 6 6-6" data-name="Icon Path"/></g></symbol><symbol viewBox="0 0 30 30" id="svg-twitter-icon"><path d="M20.421.333a8.333 8.333 0 01-2.738 1.1A4.2 4.2 0 0014.538 0a4.431 4.431 0 00-4.307 4.544 4.756 4.756 0 00.111 1.035 12.028 12.028 0 01-8.88-4.75 4.729 4.729 0 00-.583 2.288A4.61 4.61 0 002.8 6.9a4.142 4.142 0 01-1.957-.568v.055A4.491 4.491 0 004.3 10.843 4 4 0 013.165 11a4.085 4.085 0 01-.811-.081 4.345 4.345 0 004.024 3.154A8.356 8.356 0 010 15.96 11.756 11.756 0 006.6 18c7.926 0 12.258-6.923 12.258-12.928 0-.2 0-.4-.011-.589A8.992 8.992 0 0021 2.131a8.259 8.259 0 01-2.474.715A4.519 4.519 0 0020.421.333"/></symbol></svg>